<mxfile host="app.diagrams.net" modified="2023-11-24T07:24:46.745Z" agent="Mozilla/5.0 (Windows NT 10.0; Win64; x64) AppleWebKit/537.36 (KHTML, like Gecko) Chrome/119.0.0.0 Safari/537.36" version="22.1.3" etag="AN3IKT7kss0aZqqSBA28" type="github">
  <diagram name="페이지-1" id="iCGh-4pbGl4djy9NNB0n">
    <mxGraphModel>
      <root>
        <mxCell id="0" />
        <mxCell id="1" parent="0" />
      </root>
    </mxGraphModel>
  </diagram>
</mxfile>
